<?xml version="1.0" encoding="UTF-8"?>
<svg id="Layer_2" data-name="Layer 2" xmlns="http://www.w3.org/2000/svg" xmlns:xlink="http://www.w3.org/1999/xlink" viewBox="0 0 1206 789.83">
  <defs>
    <style>
      .cls-1 {
        fill: #17110e;
        stroke: #f15a24;
      }

      .cls-1, .cls-2 {
        stroke-width: 1px;
      }

      .cls-3 {
        fill: rgba(17, 19, 20, .92);
        stroke: url(#_新建渐变色板_2);
        stroke-width: 1.5px;
      }

      .cls-2 {
        fill: #f15a24;
        stroke: #17110e;
      }

      .cls-4 {
        fill: #fff;
        stroke-width: 0px;
      }
    </style>
    <linearGradient id="_新建渐变色板_2" data-name="新建渐变色板 2" x1="603" y1="0" x2="603" y2="789.83" gradientUnits="userSpaceOnUse">
      <stop offset="0" stop-color="#f7931e"/>
      <stop offset="1" stop-color="#f15a24"/>
    </linearGradient>
  </defs>
  <g id="_图层_1" data-name="图层 1">
    <g>
      <rect class="cls-3" x=".75" y=".75" width="1204.5" height="788.33" rx="25" ry="25"/>
      <g>
        <g>
          <g>
            <rect class="cls-1" x="31.55" y="31.97" width="141.83" height="101.34" rx="4.39" ry="4.39"/>
            <path class="cls-4" d="M109.76,102.08v-13.54c-.73,1.02-1.75,1.88-3.06,2.55-1.31.68-2.7,1.02-4.18,1.02-3.28,0-6.11-1.31-8.48-3.93-2.37-2.62-3.55-6.22-3.55-10.78,0-2.78.48-5.27,1.45-7.48.96-2.21,2.36-3.88,4.19-5.01,1.83-1.14,3.84-1.71,6.03-1.71,3.42,0,6.11,1.44,8.07,4.32v-3.7h4.22v38.26h-4.69ZM95.31,77.57c0,3.56.75,6.23,2.24,8.01,1.49,1.78,3.28,2.67,5.36,2.67s3.71-.85,5.16-2.54c1.44-1.69,2.16-4.27,2.16-7.72,0-3.68-.76-6.45-2.28-8.31-1.52-1.86-3.3-2.79-5.35-2.79s-3.75.86-5.17,2.59c-1.42,1.73-2.12,4.42-2.12,8.09Z"/>
          </g>
          <g>
            <rect class="cls-1" x="198.4" y="31.97" width="141.83" height="101.34" rx="4.39" ry="4.39"/>
            <path class="cls-4" d="M258.38,92.52l4.5-.42c.38,2.12,1.11,3.66,2.19,4.61,1.08.96,2.46,1.43,4.14,1.43,1.44,0,2.7-.33,3.79-.99,1.08-.66,1.97-1.54,2.67-2.64.69-1.1,1.28-2.59,1.74-4.47.47-1.88.7-3.79.7-5.73,0-.21,0-.52-.03-.94-.94,1.49-2.22,2.7-3.84,3.63-1.62.93-3.38,1.39-5.27,1.39-3.16,0-5.83-1.15-8.02-3.44-2.19-2.29-3.28-5.31-3.28-9.06s1.14-6.99,3.42-9.35c2.28-2.36,5.14-3.54,8.58-3.54,2.48,0,4.75.67,6.81,2.01,2.06,1.34,3.62,3.24,4.69,5.72,1.07,2.47,1.6,6.06,1.6,10.74s-.53,8.76-1.59,11.66-2.63,5.09-4.73,6.6c-2.09,1.51-4.54,2.27-7.36,2.27-2.99,0-5.42-.83-7.32-2.49-1.89-1.66-3.03-3.99-3.41-6.99ZM277.57,75.67c0-2.69-.72-4.83-2.15-6.41-1.43-1.58-3.15-2.37-5.17-2.37s-3.9.85-5.44,2.55c-1.54,1.7-2.32,3.91-2.32,6.62,0,2.43.73,4.41,2.2,5.93,1.47,1.52,3.28,2.28,5.43,2.28s3.95-.76,5.35-2.28c1.4-1.52,2.1-3.62,2.1-6.32Z"/>
          </g>
          <g>
            <rect class="cls-1" x="365.24" y="31.97" width="141.83" height="101.34" rx="4.39" ry="4.39"/>
            <path class="cls-4" d="M427.2,101.35v-38.18h5.05v33.68h18.8v4.51h-23.85Z"/>
          </g>
          <g>
            <rect class="cls-1" x="532.08" y="31.97" width="141.83" height="101.34" rx="4.39" ry="4.39"/>
            <path class="cls-4" d="M583.37,72.34c0-2.73.69-5.04,2.06-6.95,1.37-1.91,3.36-2.87,5.96-2.87,2.4,0,4.38.86,5.95,2.57,1.57,1.71,2.36,4.22,2.36,7.54s-.79,5.72-2.38,7.46c-1.59,1.74-3.55,2.62-5.87,2.62s-4.23-.86-5.77-2.58-2.3-4.31-2.3-7.79ZM591.52,65.75c-1.16,0-2.13.5-2.9,1.51-.77,1.01-1.16,2.86-1.16,5.55,0,2.45.39,4.17,1.17,5.17.78,1,1.74,1.5,2.89,1.5s2.16-.5,2.93-1.51c.77-1.01,1.16-2.85,1.16-5.52,0-2.47-.39-4.2-1.17-5.2-.78-1-1.75-1.5-2.92-1.5ZM591.54,102.76l20.88-40.24h3.8l-20.8,40.24h-3.88ZM608.05,92.39c0-2.74.69-5.07,2.06-6.97,1.37-1.9,3.37-2.85,5.99-2.85,2.4,0,4.38.86,5.95,2.57,1.57,1.71,2.36,4.22,2.36,7.54s-.79,5.72-2.38,7.46c-1.59,1.75-3.55,2.62-5.9,2.62s-4.23-.86-5.77-2.59-2.3-4.32-2.3-7.77ZM616.23,85.8c-1.18,0-2.16.5-2.93,1.51-.77,1.01-1.16,2.86-1.16,5.55,0,2.43.39,4.15,1.17,5.16.78,1.01,1.74,1.51,2.89,1.51s2.18-.5,2.96-1.51c.77-1.01,1.16-2.85,1.16-5.52,0-2.47-.39-4.2-1.17-5.2-.78-1-1.75-1.5-2.92-1.5Z"/>
          </g>
          <g>
            <rect class="cls-1" x="698.93" y="31.97" width="141.83" height="101.34" rx="4.39" ry="4.39"/>
            <path class="cls-4" d="M782.84,96.85v4.51h-25.23c-.04-1.13.15-2.21.55-3.26.64-1.72,1.67-3.41,3.09-5.08,1.41-1.67,3.46-3.59,6.13-5.78,4.15-3.4,6.95-6.1,8.41-8.09,1.46-1.99,2.19-3.87,2.19-5.64,0-1.86-.66-3.43-1.99-4.7-1.33-1.28-3.06-1.91-5.19-1.91-2.26,0-4.06.68-5.42,2.03-1.35,1.35-2.04,3.23-2.06,5.63l-4.82-.49c.33-3.59,1.57-6.33,3.72-8.22,2.15-1.88,5.04-2.83,8.67-2.83s6.56,1.02,8.7,3.05c2.13,2.03,3.2,4.55,3.2,7.55,0,1.53-.31,3.03-.94,4.51-.62,1.48-1.66,3.03-3.11,4.66-1.45,1.63-3.86,3.87-7.23,6.72-2.81,2.36-4.62,3.96-5.42,4.81-.8.84-1.46,1.69-1.98,2.54h18.72Z"/>
          </g>
          <g>
            <rect class="cls-1" x="865.77" y="31.97" width="141.83" height="101.34" rx="4.39" ry="4.39"/>
            <path class="cls-4" d="M925.37,101.35v-3.8l17.6-20.21c-2,.1-3.76.16-5.29.16h-11.27v-3.8h22.6v3.1l-14.97,17.55-2.89,3.2c2.1-.16,4.07-.23,5.91-.23h12.78v4.04h-24.48Z"/>
          </g>
          <g>
            <rect class="cls-1" x="1032.61" y="31.97" width="141.83" height="101.34" rx="4.39" ry="4.39"/>
            <path class="cls-4" d="M1092.36,102l2.27-11.1h-4.4v-3.88h5.18l1.93-9.45h-7.11v-3.88h7.89l2.27-11.17h3.91l-2.27,11.17h8.2l2.27-11.17h3.93l-2.27,11.17h4.5v3.88h-5.29l-1.95,9.45h7.24v3.88h-8.02l-2.27,11.1h-3.91l2.24-11.1h-8.18l-2.27,11.1h-3.91ZM1099.31,87.03h8.18l1.95-9.45h-8.2l-1.93,9.45Z"/>
          </g>
        </g>
        <g>
          <g>
            <rect class="cls-2" x="31.55" y="156.88" width="141.83" height="101.34" rx="4.39" ry="4.39"/>
            <path class="cls-4" d="M98.04,205.69c-1.94-.71-3.38-1.73-4.32-3.05-.94-1.32-1.41-2.9-1.41-4.74,0-2.78,1-5.11,2.99-7.01,2-1.89,4.65-2.84,7.97-2.84s6.01.97,8.05,2.9c2.03,1.94,3.05,4.29,3.05,7.07,0,1.77-.46,3.31-1.39,4.62-.93,1.31-2.34,2.32-4.23,3.03,2.34.76,4.13,2,5.35,3.7,1.22,1.7,1.84,3.73,1.84,6.09,0,3.26-1.15,6.01-3.46,8.23s-5.35,3.33-9.11,3.33-6.8-1.12-9.11-3.35c-2.31-2.23-3.46-5.01-3.46-8.35,0-2.48.63-4.56,1.89-6.24,1.26-1.68,3.05-2.82,5.38-3.43ZM95.59,215.38c0,1.34.32,2.63.95,3.88.63,1.25,1.58,2.22,2.83,2.9,1.25.69,2.59,1.03,4.04,1.03,2.24,0,4.09-.72,5.55-2.16s2.19-3.27,2.19-5.5-.75-4.12-2.25-5.6c-1.5-1.48-3.38-2.21-5.64-2.21s-4.03.73-5.48,2.19c-1.45,1.46-2.17,3.28-2.17,5.47ZM97.11,197.74c0,1.81.58,3.28,1.74,4.43s2.67,1.72,4.53,1.72,3.28-.57,4.44-1.71c1.15-1.14,1.73-2.53,1.73-4.18s-.59-3.16-1.78-4.34c-1.19-1.17-2.67-1.76-4.44-1.76s-3.27.57-4.45,1.72c-1.18,1.15-1.77,2.52-1.77,4.12Z"/>
          </g>
          <g>
            <rect class="cls-1" x="198.4" y="156.88" width="141.83" height="101.34" rx="4.39" ry="4.39"/>
            <path class="cls-4" d="M276.63,222.07l.68,4.14c-1.32.28-2.5.42-3.54.42-1.7,0-3.02-.27-3.96-.81-.94-.54-1.6-1.25-1.98-2.12-.38-.88-.57-2.72-.57-5.53v-15.91h-3.44v-3.65h3.44v-6.85l4.66-2.81v9.66h4.71v3.65h-4.71v16.17c0,1.34.08,2.2.25,2.58.17.38.43.69.81.91.37.23.91.34,1.6.34.52,0,1.21-.06,2.06-.18Z"/>
          </g>
          <g>
            <rect class="cls-1" x="365.24" y="156.88" width="141.83" height="101.34" rx="4.39" ry="4.39"/>
            <path class="cls-4" d="M434.7,226.26v-16.17l-14.71-22.01h6.14l7.52,11.51c1.39,2.15,2.68,4.31,3.88,6.46,1.15-2,2.53-4.25,4.17-6.75l7.4-11.23h5.88l-15.23,22.01v16.17h-5.05Z"/>
          </g>
          <g>
            <rect class="cls-1" x="532.08" y="156.88" width="141.83" height="101.34" rx="4.39" ry="4.39"/>
            <path class="cls-4" d="M611.53,221.76c-1.55,1.72-3.23,3.01-5.05,3.87-1.82.86-3.79,1.29-5.91,1.29-3.91,0-7-1.32-9.3-3.96-1.86-2.15-2.79-4.56-2.79-7.21,0-2.36.76-4.49,2.28-6.39,1.52-1.9,3.79-3.57,6.81-5.01-1.72-1.98-2.86-3.59-3.44-4.82s-.86-2.42-.86-3.57c0-2.29.9-4.28,2.69-5.98,1.8-1.69,4.06-2.54,6.78-2.54s4.73.8,6.39,2.4c1.66,1.6,2.49,3.52,2.49,5.76,0,3.63-2.4,6.73-7.21,9.3l6.85,8.73c.78-1.53,1.39-3.3,1.82-5.31l4.87,1.04c-.83,3.33-1.96,6.08-3.38,8.23,1.75,2.33,3.74,4.28,5.96,5.86l-3.15,3.72c-1.89-1.22-3.85-3.01-5.86-5.39ZM608.58,218.06l-8.59-10.65c-2.53,1.51-4.24,2.91-5.13,4.21-.89,1.29-1.33,2.57-1.33,3.84,0,1.55.62,3.15,1.85,4.82s2.98,2.5,5.23,2.5c1.41,0,2.86-.44,4.36-1.32,1.5-.88,2.7-2.01,3.61-3.4ZM602,201.86c2.03-1.2,3.35-2.25,3.94-3.15.6-.9.9-1.9.9-3,0-1.3-.41-2.37-1.24-3.19-.82-.82-1.85-1.24-3.09-1.24s-2.32.41-3.16,1.22c-.84.82-1.26,1.81-1.26,3,0,.59.15,1.21.46,1.86s.76,1.34,1.37,2.07l2.08,2.42Z"/>
          </g>
          <g>
            <rect class="cls-2" x="698.93" y="156.88" width="141.83" height="101.34" rx="4.39" ry="4.39"/>
            <path class="cls-4" d="M763.83,226.26h-4.35v-38.18h4.69v13.62c1.98-2.48,4.5-3.72,7.58-3.72,1.7,0,3.31.34,4.83,1.03,1.52.69,2.77,1.65,3.75,2.89.98,1.24,1.75,2.74,2.3,4.49.56,1.75.83,3.63.83,5.63,0,4.74-1.17,8.4-3.52,10.99-2.34,2.59-5.16,3.88-8.44,3.88s-5.82-1.36-7.68-4.09v3.46ZM763.78,212.22c0,3.32.45,5.71,1.35,7.19,1.48,2.41,3.47,3.62,5.99,3.62,2.05,0,3.82-.89,5.31-2.67,1.49-1.78,2.24-4.43,2.24-7.96s-.72-6.28-2.15-8-3.16-2.58-5.19-2.58-3.82.89-5.31,2.67c-1.49,1.78-2.24,4.35-2.24,7.72Z"/>
          </g>
          <g>
            <rect class="cls-1" x="865.77" y="156.88" width="141.83" height="101.34" rx="4.39" ry="4.39"/>
            <path class="cls-4" d="M925.36,193.08v-4.51h24.71v3.65c-2.43,2.59-4.84,6.03-7.23,10.31-2.39,4.29-4.23,8.7-5.53,13.23-.94,3.2-1.54,6.69-1.8,10.5h-4.82c.05-3,.64-6.63,1.77-10.89,1.13-4.25,2.75-8.36,4.86-12.31,2.11-3.95,4.35-7.28,6.73-9.99h-18.69Z"/>
          </g>
          <g>
            <rect class="cls-1" x="1032.61" y="156.88" width="141.83" height="101.34" rx="4.39" ry="4.39"/>
            <path class="cls-4" d="M1089.37,226.26v-38.18h13.15c2.97,0,5.23.18,6.8.55,2.19.5,4.05,1.42,5.6,2.73,2.01,1.7,3.52,3.88,4.52,6.52,1,2.65,1.5,5.67,1.5,9.08,0,2.9-.34,5.47-1.02,7.71-.68,2.24-1.55,4.09-2.6,5.56-1.06,1.47-2.22,2.62-3.48,3.46-1.26.84-2.78,1.48-4.56,1.91-1.78.43-3.82.65-6.13.65h-13.77ZM1094.42,221.76h8.15c2.52,0,4.49-.23,5.92-.7,1.43-.47,2.57-1.13,3.42-1.98,1.2-1.2,2.13-2.81,2.8-4.83.67-2.02,1-4.48,1-7.36,0-3.99-.66-7.06-1.97-9.21-1.31-2.14-2.9-3.58-4.78-4.31-1.35-.52-3.53-.78-6.54-.78h-8.02v29.17Z"/>
          </g>
        </g>
        <g>
          <g>
            <rect class="cls-1" x="31.55" y="281.79" width="141.83" height="101.34" rx="4.39" ry="4.39"/>
            <path class="cls-4" d="M101.31,351.3l-10.52-27.66h4.95l5.94,16.57c.64,1.79,1.23,3.65,1.77,5.57.42-1.46,1-3.21,1.74-5.26l6.14-16.88h4.82l-10.47,27.66h-4.37Z"/>
          </g>
          <g>
            <rect class="cls-1" x="198.4" y="281.79" width="141.83" height="101.34" rx="4.39" ry="4.39"/>
            <path class="cls-4" d="M271.53,336.2v-4.48l16.17-.03v14.17c-2.48,1.98-5.04,3.47-7.68,4.47-2.64,1-5.35,1.5-8.12,1.5-3.75,0-7.16-.8-10.22-2.41-3.06-1.61-5.38-3.93-6.94-6.97-1.56-3.04-2.34-6.43-2.34-10.18s.78-7.18,2.33-10.41c1.55-3.22,3.79-5.61,6.7-7.18,2.92-1.56,6.27-2.34,10.08-2.34,2.76,0,5.26.45,7.49,1.34,2.23.89,3.98,2.14,5.25,3.74s2.23,3.68,2.89,6.25l-4.56,1.25c-.57-1.94-1.28-3.47-2.13-4.58-.85-1.11-2.07-2-3.65-2.67s-3.33-1-5.26-1c-2.31,0-4.31.35-5.99,1.05-1.68.7-3.04,1.63-4.07,2.77-1.03,1.15-1.84,2.41-2.41,3.78-.97,2.36-1.46,4.92-1.46,7.68,0,3.4.59,6.25,1.76,8.54,1.17,2.29,2.88,3.99,5.12,5.1s4.62,1.67,7.13,1.67c2.19,0,4.32-.42,6.41-1.26,2.08-.84,3.66-1.74,4.74-2.7v-7.11h-11.22Z"/>
          </g>
          <g>
            <rect class="cls-1" x="365.24" y="281.79" width="141.83" height="101.34" rx="4.39" ry="4.39"/>
            <path class="cls-4" d="M424.54,341.09l4.69-.63c.54,2.66,1.45,4.57,2.75,5.74,1.29,1.17,2.87,1.76,4.73,1.76,2.2,0,4.07-.76,5.58-2.29,1.52-1.53,2.28-3.42,2.28-5.68s-.7-3.93-2.11-5.33c-1.41-1.4-3.19-2.1-5.36-2.1-.89,0-1.99.17-3.31.52l.52-4.12c.31.03.56.05.75.05,2,0,3.79-.52,5.39-1.56,1.6-1.04,2.4-2.65,2.4-4.82,0-1.72-.58-3.14-1.74-4.27-1.16-1.13-2.66-1.69-4.5-1.69s-3.34.57-4.56,1.72-2,2.86-2.34,5.16l-4.69-.83c.57-3.14,1.87-5.58,3.91-7.31,2.03-1.73,4.56-2.59,7.58-2.59,2.08,0,4,.45,5.75,1.34,1.75.89,3.09,2.11,4.02,3.66.93,1.55,1.39,3.19,1.39,4.92s-.44,3.15-1.33,4.51-2.2,2.43-3.93,3.23c2.26.52,4.01,1.6,5.26,3.24,1.25,1.64,1.87,3.69,1.87,6.16,0,3.33-1.21,6.16-3.65,8.48-2.43,2.32-5.5,3.48-9.22,3.48-3.35,0-6.13-1-8.34-3-2.21-2-3.48-4.58-3.79-7.76Z"/>
          </g>
          <g>
            <rect class="cls-1" x="532.08" y="281.79" width="141.83" height="101.34" rx="4.39" ry="4.39"/>
            <path class="cls-4" d="M612.2,341.04l4.61.6c-.5,3.18-1.79,5.67-3.87,7.46-2.07,1.8-4.62,2.7-7.64,2.7-3.78,0-6.83-1.24-9.13-3.71-2.3-2.47-3.45-6.02-3.45-10.64,0-2.99.49-5.6,1.48-7.84.99-2.24,2.5-3.92,4.52-5.04,2.02-1.12,4.22-1.68,6.6-1.68,3,0,5.46.76,7.37,2.28,1.91,1.52,3.13,3.68,3.67,6.47l-4.56.7c-.43-1.86-1.2-3.26-2.3-4.19-1.1-.94-2.43-1.41-4-1.41-2.36,0-4.28.85-5.75,2.54-1.48,1.69-2.21,4.37-2.21,8.04s.71,6.42,2.14,8.1c1.42,1.68,3.28,2.53,5.57,2.53,1.84,0,3.38-.56,4.61-1.69,1.23-1.13,2.01-2.86,2.34-5.21Z"/>
          </g>
          <g>
            <rect class="cls-2" x="698.93" y="281.79" width="141.83" height="101.34" rx="4.39" ry="4.39"/>
            <path class="cls-4" d="M759.13,342.92l4.63-.73c.26,1.86.98,3.28,2.17,4.27,1.19.99,2.85,1.48,4.99,1.48s3.75-.44,4.79-1.32c1.04-.88,1.56-1.91,1.56-3.09,0-1.06-.46-1.89-1.38-2.5-.64-.42-2.24-.95-4.79-1.59-3.44-.87-5.82-1.62-7.15-2.25-1.33-.63-2.33-1.51-3.02-2.63-.69-1.12-1.03-2.36-1.03-3.71,0-1.23.28-2.37.85-3.42.56-1.05,1.33-1.92,2.3-2.62.73-.54,1.72-.99,2.98-1.37,1.26-.37,2.61-.56,4.05-.56,2.17,0,4.07.31,5.72.94,1.64.63,2.85,1.47,3.63,2.54.78,1.07,1.32,2.5,1.61,4.28l-4.58.62c-.21-1.42-.81-2.54-1.81-3.33-1-.8-2.41-1.2-4.23-1.2-2.15,0-3.69.36-4.61,1.07-.92.71-1.38,1.55-1.38,2.5,0,.61.19,1.15.57,1.64.38.5.98.92,1.8,1.25.47.17,1.85.57,4.14,1.2,3.31.89,5.63,1.61,6.94,2.17,1.31.56,2.34,1.38,3.09,2.46.75,1.08,1.12,2.41,1.12,4.01s-.46,3.03-1.37,4.42-2.23,2.45-3.94,3.2c-1.72.76-3.66,1.13-5.83,1.13-3.59,0-6.33-.75-8.21-2.24-1.88-1.49-3.09-3.71-3.61-6.64Z"/>
          </g>
          <g>
            <rect class="cls-1" x="865.77" y="281.79" width="141.83" height="101.34" rx="4.39" ry="4.39"/>
            <path class="cls-4" d="M928.95,320l1.2-3.7c2.76.97,4.76,1.81,6.01,2.53-.33-3.14-.5-5.3-.52-6.49h3.78c-.05,1.72-.25,3.87-.6,6.46,1.79-.9,3.84-1.74,6.14-2.5l1.2,3.7c-2.2.73-4.37,1.22-6.48,1.46,1.06.92,2.55,2.56,4.48,4.92l-3.12,2.21c-1.01-1.37-2.2-3.24-3.57-5.6-1.28,2.45-2.41,4.32-3.38,5.6l-3.07-2.21c2.01-2.48,3.45-4.12,4.32-4.92-2.24-.43-4.37-.92-6.38-1.46Z"/>
          </g>
          <g>
            <rect class="cls-1" x="1032.61" y="281.79" width="141.83" height="101.34" rx="4.39" ry="4.39"/>
            <path class="cls-4" d="M1093.19,361.77v-38.26h4.27v3.59c1.01-1.41,2.14-2.46,3.41-3.16,1.27-.7,2.8-1.05,4.61-1.05,2.36,0,4.44.61,6.25,1.82,1.81,1.22,3.17,2.93,4.09,5.14.92,2.21,1.38,4.64,1.38,7.28,0,2.83-.51,5.38-1.52,7.64-1.02,2.27-2.49,4-4.43,5.21s-3.97,1.81-6.11,1.81c-1.56,0-2.96-.33-4.21-.99-1.24-.66-2.26-1.49-3.06-2.5v13.47h-4.69ZM1097.44,337.5c0,3.56.72,6.19,2.16,7.89,1.44,1.7,3.19,2.55,5.23,2.55s3.87-.88,5.35-2.64c1.48-1.76,2.23-4.49,2.23-8.19s-.73-6.16-2.17-7.92c-1.45-1.75-3.18-2.63-5.19-2.63s-3.76.93-5.3,2.8c-1.54,1.87-2.3,4.58-2.3,8.14Z"/>
          </g>
        </g>
        <g>
          <g>
            <rect class="cls-1" x="31.55" y="406.7" width="141.83" height="101.34" rx="4.39" ry="4.39"/>
            <path class="cls-4" d="M89.57,476.21v-38.18h5.05v18.94l18.96-18.94h6.85l-16.01,15.47,16.72,22.71h-6.67l-13.59-19.33-6.25,6.09v13.23h-5.05Z"/>
          </g>
          <g>
            <rect class="cls-1" x="198.4" y="406.7" width="141.83" height="101.34" rx="4.39" ry="4.39"/>
            <path class="cls-4" d="M264.87,476.08v-27.66h4.22v4.19c1.08-1.96,2.07-3.26,2.98-3.88.91-.62,1.91-.94,3.01-.94,1.58,0,3.19.5,4.82,1.51l-1.61,4.35c-1.15-.68-2.29-1.02-3.44-1.02-1.02,0-1.94.31-2.76.92-.82.62-1.4,1.47-1.74,2.57-.52,1.67-.78,3.49-.78,5.47v14.48h-4.69Z"/>
          </g>
          <g>
            <rect class="cls-2" x="365.24" y="406.7" width="141.83" height="101.34" rx="4.39" ry="4.39"/>
            <path class="cls-4" d="M448.84,447.25l-4.66.36c-.42-1.84-1.01-3.18-1.77-4.01-1.27-1.34-2.83-2.01-4.69-2.01-1.49,0-2.8.42-3.93,1.25-1.48,1.08-2.64,2.65-3.49,4.71-.85,2.07-1.29,5.01-1.33,8.83,1.13-1.72,2.51-3,4.14-3.83,1.63-.83,3.34-1.25,5.13-1.25,3.12,0,5.78,1.15,7.98,3.45s3.29,5.27,3.29,8.92c0,2.4-.52,4.62-1.55,6.68s-2.45,3.63-4.26,4.73c-1.81,1.09-3.85,1.64-6.15,1.64-3.91,0-7.09-1.44-9.56-4.31-2.46-2.87-3.7-7.61-3.7-14.21,0-7.38,1.36-12.74,4.09-16.1,2.38-2.92,5.58-4.38,9.61-4.38,3,0,5.46.84,7.38,2.53,1.92,1.68,3.07,4.01,3.45,6.98ZM429.7,463.71c0,1.61.34,3.16,1.03,4.64.69,1.48,1.64,2.6,2.88,3.37,1.23.77,2.53,1.16,3.88,1.16,1.98,0,3.68-.8,5.1-2.4,1.42-1.6,2.13-3.77,2.13-6.51s-.7-4.72-2.11-6.24c-1.41-1.52-3.18-2.28-5.31-2.28s-3.91.76-5.39,2.28c-1.48,1.52-2.21,3.51-2.21,5.98Z"/>
          </g>
          <g>
            <rect class="cls-1" x="532.08" y="406.7" width="141.83" height="101.34" rx="4.39" ry="4.39"/>
            <path class="cls-4" d="M595.61,486.81l.89-3.98c.94.24,1.67.36,2.21.36.95,0,1.67-.32,2.14-.95s.7-2.22.7-4.75v-29.07h4.69v29.17c0,3.4-.44,5.77-1.33,7.11-1.13,1.74-3,2.6-5.62,2.6-1.27,0-2.49-.17-3.67-.49ZM601.54,443.34v-5.44h4.69v5.44h-4.69Z"/>
          </g>
          <g>
            <rect class="cls-1" x="698.93" y="406.7" width="141.83" height="101.34" rx="4.39" ry="4.39"/>
            <path class="cls-4" d="M757.88,476.08l10.1-14.38-9.35-13.28h5.86l4.24,6.49c.8,1.23,1.44,2.27,1.93,3.1.76-1.15,1.47-2.16,2.11-3.05l4.66-6.54h5.6l-9.56,13.02,10.28,14.64h-5.75l-5.68-8.6-1.51-2.32-7.26,10.91h-5.68Z"/>
          </g>
          <g>
            <rect class="cls-1" x="865.77" y="406.7" width="141.83" height="101.34" rx="4.39" ry="4.39"/>
            <path class="cls-4" d="M949.97,471.99c2.34,1.62,4.5,2.8,6.48,3.54l-1.48,3.52c-2.74-.99-5.48-2.55-8.2-4.69-2.83,1.58-5.95,2.37-9.37,2.37s-6.59-.83-9.4-2.5-4.98-4.01-6.5-7.03c-1.52-3.02-2.28-6.42-2.28-10.21s.76-7.2,2.29-10.29c1.53-3.09,3.7-5.44,6.52-7.06,2.82-1.62,5.98-2.42,9.46-2.42s6.7.84,9.53,2.51c2.83,1.68,4.99,4.02,6.47,7.03,1.48,3.01,2.23,6.41,2.23,10.2,0,3.14-.48,5.97-1.43,8.48s-2.4,4.69-4.32,6.55ZM938.85,465.53c2.92.82,5.32,2.03,7.21,3.65,2.97-2.71,4.45-6.78,4.45-12.22,0-3.09-.52-5.79-1.58-8.1-1.05-2.31-2.59-4.1-4.61-5.38-2.02-1.28-4.29-1.91-6.81-1.91-3.77,0-6.89,1.29-9.37,3.87-2.48,2.58-3.72,6.43-3.72,11.55s1.23,8.78,3.68,11.43c2.46,2.66,5.59,3.99,9.41,3.99,1.8,0,3.51-.34,5.1-1.02-1.58-1.02-3.25-1.75-5-2.19l1.22-3.67Z"/>
          </g>
          <g>
            <rect class="cls-1" x="1032.61" y="406.7" width="141.83" height="101.34" rx="4.39" ry="4.39"/>
            <path class="cls-4" d="M1091.89,457.25c0-4.51.46-8.15,1.39-10.9.93-2.75,2.31-4.87,4.14-6.37,1.83-1.49,4.14-2.24,6.91-2.24,2.05,0,3.84.41,5.39,1.24,1.54.83,2.82,2.01,3.83,3.57,1.01,1.55,1.8,3.45,2.37,5.68.57,2.23.86,5.24.86,9.02,0,4.48-.46,8.1-1.38,10.85s-2.3,4.88-4.13,6.38c-1.83,1.5-4.14,2.25-6.94,2.25-3.68,0-6.57-1.32-8.67-3.96-2.52-3.18-3.78-8.35-3.78-15.52ZM1096.71,457.25c0,6.27.73,10.44,2.2,12.52s3.28,3.11,5.43,3.11,3.96-1.04,5.43-3.13c1.47-2.08,2.2-6.25,2.2-12.5s-.73-10.46-2.2-12.53c-1.47-2.07-3.29-3.1-5.48-3.1s-3.87.91-5.16,2.73c-1.61,2.33-2.42,6.62-2.42,12.89Z"/>
          </g>
        </g>
        <g>
          <g>
            <rect class="cls-1" x="31.55" y="531.61" width="141.83" height="101.34" rx="4.39" ry="4.39"/>
            <path class="cls-4" d="M101.06,568.33v-5.39h4.69v5.39h-4.69ZM101.06,601.12v-27.66h4.69v27.66h-4.69Z"/>
          </g>
          <g>
            <rect class="cls-1" x="198.4" y="531.61" width="141.83" height="101.34" rx="4.39" ry="4.39"/>
            <path class="cls-4" d="M275.33,600.99h-4.69v-29.87c-1.13,1.08-2.61,2.15-4.44,3.23-1.83,1.08-3.48,1.88-4.93,2.42v-4.53c2.62-1.23,4.91-2.73,6.87-4.48,1.96-1.75,3.35-3.46,4.17-5.1h3.02v38.34Z"/>
          </g>
          <g>
            <rect class="cls-1" x="365.24" y="531.61" width="141.83" height="101.34" rx="4.39" ry="4.39"/>
            <path class="cls-4" d="M424.96,603.28l4.56.68c.19,1.41.72,2.43,1.59,3.07,1.16.87,2.75,1.3,4.76,1.3,2.17,0,3.84-.43,5.03-1.3,1.18-.87,1.98-2.08,2.4-3.65.24-.96.36-2.96.34-6.02-2.05,2.41-4.6,3.62-7.66,3.62-3.8,0-6.74-1.37-8.83-4.12-2.08-2.74-3.12-6.03-3.12-9.87,0-2.64.48-5.07,1.43-7.31.95-2.23,2.34-3.95,4.15-5.17s3.94-1.82,6.39-1.82c3.26,0,5.95,1.32,8.07,3.96v-3.33h4.32v23.91c0,4.31-.44,7.36-1.31,9.15-.88,1.8-2.27,3.22-4.17,4.26-1.9,1.04-4.24,1.56-7.02,1.56-3.3,0-5.96-.74-7.99-2.23-2.03-1.48-3.01-3.72-2.94-6.71ZM428.84,586.67c0,3.63.72,6.28,2.16,7.94s3.25,2.5,5.42,2.5,3.96-.83,5.42-2.49,2.19-4.26,2.19-7.8-.75-5.94-2.25-7.66c-1.5-1.72-3.31-2.58-5.43-2.58s-3.85.85-5.31,2.54c-1.46,1.69-2.19,4.21-2.19,7.54Z"/>
          </g>
          <g>
            <rect class="cls-1" x="532.08" y="531.61" width="141.83" height="101.34" rx="4.39" ry="4.39"/>
            <path class="cls-4" d="M590.41,600.99v-38.18h27.6v4.51h-22.55v11.69h21.12v4.48h-21.12v13h23.43v4.51h-28.48Z"/>
          </g>
          <g>
            <rect class="cls-1" x="698.93" y="531.61" width="141.83" height="101.34" rx="4.39" ry="4.39"/>
            <path class="cls-4" d="M764.53,583.02h-4.82l9.19-20.86h3.78l9.24,20.86h-4.71l-6.43-15.55-6.25,15.55Z"/>
          </g>
          <g>
            <rect class="cls-1" x="865.77" y="531.61" width="141.83" height="101.34" rx="4.39" ry="4.39"/>
            <path class="cls-4" d="M944.29,600.99v-3.49c-1.75,2.74-4.33,4.12-7.73,4.12-2.2,0-4.23-.61-6.08-1.82-1.85-1.21-3.28-2.91-4.3-5.09-1.02-2.18-1.52-4.68-1.52-7.51s.46-5.27,1.38-7.51c.92-2.25,2.3-3.97,4.14-5.17,1.84-1.2,3.9-1.8,6.17-1.8,1.67,0,3.15.35,4.45,1.05s2.36,1.62,3.18,2.75v-13.7h4.66v38.18h-4.35ZM929.47,587.19c0,3.54.75,6.19,2.24,7.94,1.49,1.75,3.25,2.63,5.29,2.63s3.79-.84,5.22-2.51c1.43-1.68,2.15-4.23,2.15-7.67,0-3.79-.73-6.56-2.19-8.33-1.46-1.77-3.25-2.66-5.39-2.66s-3.82.85-5.22,2.55c-1.4,1.7-2.1,4.38-2.1,8.05Z"/>
          </g>
          <g>
            <rect class="cls-1" x="1032.61" y="531.61" width="141.83" height="101.34" rx="4.39" ry="4.39"/>
            <path class="cls-4" d="M1093.19,600.99v-27.66h4.22v3.93c2.03-3.04,4.96-4.56,8.8-4.56,1.67,0,3.2.3,4.6.9,1.4.6,2.44,1.38,3.14,2.36.69.97,1.18,2.13,1.46,3.46.17.87.26,2.39.26,4.56v17.01h-4.69v-16.83c0-1.91-.18-3.34-.55-4.28-.36-.95-1.01-1.7-1.94-2.27-.93-.56-2.02-.85-3.27-.85-2,0-3.72.63-5.17,1.9-1.45,1.27-2.17,3.67-2.17,7.21v15.11h-4.69Z"/>
          </g>
        </g>
        <g>
          <g>
            <rect class="cls-1" x="31.55" y="656.52" width="141.83" height="101.34" rx="4.39" ry="4.39"/>
            <path class="cls-4" d="M85.19,725.9v-38.18h7.6l9.04,27.04c.83,2.52,1.44,4.4,1.82,5.65.43-1.39,1.11-3.43,2.03-6.12l9.14-26.57h6.8v38.18h-4.87v-31.96l-11.09,31.96h-4.56l-11.04-32.51v32.51h-4.87Z"/>
          </g>
          <g>
            <rect class="cls-1" x="532.08" y="656.52" width="141.83" height="101.34" rx="4.39" ry="4.39"/>
            <path class="cls-4" d="M602.58,716.42l-1.43-20.24v-8.46h5.81v8.46l-1.35,20.24h-3.02ZM601.36,725.9v-5.34h5.39v5.34h-5.39Z"/>
          </g>
          <g>
            <rect class="cls-1" x="365.24" y="656.52" width="141.83" height="101.34" rx="4.39" ry="4.39"/>
            <path class="cls-4" d="M425.82,725.9v-38.18h4.69v13.7c2.19-2.54,4.95-3.8,8.28-3.8,2.05,0,3.83.4,5.34,1.21s2.59,1.92,3.24,3.35c.65,1.42.98,3.49.98,6.2v17.53h-4.69v-17.53c0-2.34-.51-4.05-1.52-5.12-1.02-1.07-2.45-1.6-4.31-1.6-1.39,0-2.69.36-3.92,1.08-1.22.72-2.1,1.7-2.62,2.93-.52,1.23-.78,2.93-.78,5.1v15.13h-4.69Z"/>
          </g>
          <g>
            <rect class="cls-1" x="198.4" y="656.52" width="141.83" height="101.34" rx="4.39" ry="4.39"/>
            <path class="cls-4" d="M273.45,721.66c-1.13,1.3-2.39,2.35-3.79,3.14-1.4.79-2.8,1.19-4.21,1.19-1.54,0-3.05-.45-4.5-1.35-1.46-.9-2.64-2.29-3.55-4.17-.91-1.88-1.37-3.93-1.37-6.17,0-2.76.71-5.53,2.12-8.3,1.41-2.77,3.17-4.85,5.27-6.24,2.1-1.39,4.14-2.08,6.12-2.08,1.51,0,2.95.4,4.32,1.19,1.37.79,2.55,1.99,3.54,3.61l.89-4.04h4.66l-3.75,17.48c-.52,2.43-.78,3.78-.78,4.04,0,.47.18.87.53,1.21.36.34.79.51,1.29.51.92,0,2.13-.53,3.62-1.59,1.98-1.39,3.55-3.25,4.7-5.59s1.73-4.74,1.73-7.23c0-2.9-.74-5.61-2.23-8.13-1.48-2.52-3.7-4.53-6.64-6.04-2.94-1.51-6.19-2.27-9.75-2.27-4.06,0-7.77.95-11.13,2.85-3.36,1.9-5.96,4.63-7.81,8.18-1.85,3.55-2.77,7.36-2.77,11.42s.92,7.92,2.77,10.99c1.85,3.07,4.52,5.34,8.02,6.81,3.5,1.47,7.37,2.2,11.63,2.2,4.55,0,8.36-.76,11.43-2.29,3.07-1.53,5.37-3.39,6.9-5.57h4.71c-.89,1.82-2.4,3.68-4.56,5.57-2.15,1.89-4.71,3.39-7.68,4.49-2.97,1.1-6.54,1.65-10.73,1.65-3.85,0-7.41-.49-10.66-1.48-3.25-.99-6.03-2.48-8.32-4.47-2.29-1.99-4.02-4.28-5.18-6.86-1.46-3.28-2.19-6.82-2.19-10.63,0-4.24.87-8.27,2.6-12.11,2.12-4.71,5.12-8.31,9.02-10.81s8.62-3.75,14.18-3.75c4.3,0,8.17.88,11.6,2.64s6.13,4.39,8.11,7.88c1.68,3,2.53,6.27,2.53,9.79,0,5.04-1.77,9.51-5.31,13.41-3.16,3.51-6.61,5.26-10.36,5.26-1.2,0-2.17-.18-2.9-.55s-1.28-.89-1.63-1.56c-.23-.43-.39-1.18-.49-2.24ZM260.85,714.6c0,2.38.56,4.23,1.69,5.55,1.13,1.32,2.42,1.98,3.88,1.98.97,0,2-.29,3.07-.87,1.08-.58,2.1-1.45,3.09-2.59.98-1.15,1.78-2.6,2.41-4.36.62-1.76.94-3.53.94-5.3,0-2.36-.59-4.19-1.76-5.5s-2.6-1.95-4.28-1.95c-1.11,0-2.16.28-3.14.85-.98.56-1.93,1.47-2.85,2.72-.92,1.25-1.66,2.77-2.21,4.56-.56,1.79-.83,3.43-.83,4.92Z"/>
          </g>
          <g>
            <rect class="cls-1" x="698.93" y="656.52" width="141.83" height="101.34" rx="4.39" ry="4.39"/>
            <path class="cls-4" d="M760.18,725.9l-8.46-27.66h4.84l4.4,15.97,1.64,5.94c.07-.29.55-2.2,1.43-5.7l4.4-16.2h4.82l4.14,16.04,1.38,5.29,1.59-5.34,4.74-15.99h4.56l-8.64,27.66h-4.87l-4.4-16.56-1.07-4.71-5.6,21.28h-4.9Z"/>
          </g>
          <g>
            <rect class="cls-1" x="865.77" y="656.52" width="141.83" height="101.34" rx="4.39" ry="4.39"/>
            <path class="cls-4" d="M925.05,715.9l4.92-.42c.36,2.4,1.21,4.2,2.54,5.4s2.93,1.81,4.8,1.81c2.26,0,4.17-.85,5.73-2.55,1.56-1.7,2.34-3.96,2.34-6.77s-.75-4.78-2.25-6.33c-1.5-1.54-3.47-2.32-5.9-2.32-1.51,0-2.87.34-4.09,1.03-1.21.69-2.17,1.58-2.86,2.67l-4.4-.57,3.7-19.61h18.98v4.48h-15.23l-2.06,10.26c2.29-1.6,4.7-2.4,7.21-2.4,3.33,0,6.14,1.15,8.44,3.46,2.29,2.31,3.44,5.28,3.44,8.91s-1.01,6.44-3.02,8.96c-2.45,3.09-5.79,4.64-10.02,4.64-3.47,0-6.31-.97-8.5-2.92-2.2-1.94-3.45-4.52-3.76-7.74Z"/>
          </g>
          <g>
            <rect class="cls-1" x="1032.61" y="656.52" width="141.83" height="101.34" rx="4.39" ry="4.39"/>
            <path class="cls-4" d="M1092.59,725.9v-38.18h25.75v4.51h-20.7v11.82h17.91v4.51h-17.91v17.35h-5.05Z"/>
          </g>
        </g>
      </g>
    </g>
  </g>
</svg>